<svg width="515" height="587" viewBox="0 0 515 587" fill="none" xmlns="http://www.w3.org/2000/svg">
<path d="M484.52 99.96C374.233 99.96 276.333 16.9707 275.373 16.1267L257.696 0.965332L240.003 16.096C239.013 16.9397 140.357 99.9507 30.9225 99.9507L0.843872 99.6069V283.14C1.94803 366.671 55.7186 537.367 251.284 584.647L257.659 586.199L264.034 584.647C459.554 537.376 513.354 366.354 514.5 282.527L514.506 99.6069L484.52 99.96ZM460.291 282.2C460.254 284.299 454.515 477.227 259.931 529.773C259.186 529.976 258.42 530.075 257.649 530.075C256.884 530.075 256.113 529.976 255.368 529.773C61.2748 477.456 55.2081 290.773 55.0348 282.84L55.04 161.043C55.04 156.584 58.3837 152.845 62.8108 152.345C146.117 142.975 217.464 99.6621 252.571 74.6781C255.612 72.5219 259.68 72.5115 262.722 74.6781C297.805 99.6621 369.097 142.981 452.509 152.366C456.936 152.861 460.279 156.606 460.279 161.064L460.274 282.2H460.291Z" fill="white"/>
<path d="M72.5466 168.76V282.661C72.6925 289.838 78.3174 462.461 257.653 512.248C436.973 462.331 442.76 283.835 442.8 282.035L442.795 168.784C362.68 157.794 294.461 118.003 257.648 92.4973C220.815 118.003 152.555 157.779 72.5547 168.763L72.5466 168.76Z" fill="white"/>
</svg>
